<svg width="24" height="25" viewBox="0 0 24 25" fill="none" xmlns="http://www.w3.org/2000/svg">
<path d="M3.56286 11.5723H17.2761L9.06833 4.15039C8.93708 4.03076 9.01677 3.80859 9.1902 3.80859H11.2644C11.3558 3.80859 11.4425 3.84277 11.5105 3.90381L20.3675 11.9092C20.4487 11.9824 20.5137 12.073 20.5583 12.1747C20.6029 12.2764 20.626 12.387 20.626 12.4988C20.626 12.6106 20.6029 12.7211 20.5583 12.8229C20.5137 12.9246 20.4487 13.0151 20.3675 13.0884L11.459 21.1426C11.4238 21.1743 11.3816 21.1914 11.3371 21.1914H9.19255C9.01911 21.1914 8.93942 20.9668 9.07067 20.8496L17.2761 13.4277H3.56286C3.45974 13.4277 3.37536 13.3398 3.37536 13.2324V11.7676C3.37536 11.6602 3.45974 11.5723 3.56286 11.5723Z" fill="black"/>
</svg>
