<svg width="34" height="30" viewBox="0 0 34 30" fill="none" xmlns="http://www.w3.org/2000/svg">
<path d="M27.3125 4.6875H6.6875C6.11796 4.6875 5.65625 5.10723 5.65625 5.625V24.375C5.65625 24.8928 6.11796 25.3125 6.6875 25.3125H27.3125C27.882 25.3125 28.3438 24.8928 28.3438 24.375V5.625C28.3438 5.10723 27.882 4.6875 27.3125 4.6875Z" stroke="#2B2B2B" stroke-width="2" stroke-linecap="round" stroke-linejoin="round"/>
<path d="M23.1875 2.8125V6.5625" stroke="#2B2B2B" stroke-width="2" stroke-linecap="round" stroke-linejoin="round"/>
<path d="M10.8125 2.8125V6.5625" stroke="#2B2B2B" stroke-width="2" stroke-linecap="round" stroke-linejoin="round"/>
<path d="M5.65625 10.3125H28.3438" stroke="#2B2B2B" stroke-width="2" stroke-linecap="round" stroke-linejoin="round"/>
<path d="M12.3594 15H15.9688L13.9062 17.3438C14.2457 17.3432 14.58 17.4189 14.8796 17.564C15.1792 17.7091 15.4347 17.9191 15.6236 18.1755C15.8124 18.4319 15.9287 18.7267 15.9622 19.0338C15.9957 19.3409 15.9453 19.6507 15.8155 19.9358C15.6857 20.221 15.4804 20.4725 15.218 20.6683C14.9556 20.864 14.6441 20.9978 14.3112 21.0579C13.9782 21.1179 13.6341 21.1024 13.3094 21.0126C12.9847 20.9227 12.6893 20.7614 12.4496 20.543" stroke="#2B2B2B" stroke-width="2" stroke-linecap="round" stroke-linejoin="round"/>
<path d="M19.0625 16.4062L21.125 15V21.0938" stroke="#2B2B2B" stroke-width="2" stroke-linecap="round" stroke-linejoin="round"/>
</svg>
