<svg width="33" height="30" viewBox="0 0 33 30" fill="none" xmlns="http://www.w3.org/2000/svg">
<path d="M4.39561 16.4883C3.23979 14.718 2.83466 12.625 3.25632 10.6024C3.67798 8.57975 4.89742 6.76666 6.68561 5.50361C8.4738 4.24056 10.7077 3.61447 12.9678 3.74291C15.2279 3.87135 17.3586 4.7455 18.9599 6.20117C20.5611 7.65684 21.5227 9.59388 21.6639 11.6485C21.8052 13.7031 21.1165 15.734 19.7272 17.3596C18.3378 18.9852 16.3434 20.0938 14.1185 20.4771C11.8936 20.8604 9.59135 20.4921 7.64405 19.4414L4.43429 20.2734C4.30204 20.3072 4.16227 20.3084 4.02936 20.2768C3.89645 20.2452 3.77519 20.182 3.67805 20.0937C3.58091 20.0054 3.51139 19.8952 3.47665 19.7744C3.44191 19.6535 3.4432 19.5265 3.48038 19.4062L4.39561 16.4883Z" stroke="#2B2B2B" stroke-width="2" stroke-linecap="round" stroke-linejoin="round"/>
<path d="M11.8723 20.6133C12.3266 21.7908 13.063 22.862 14.0282 23.7492C14.9934 24.6365 16.1634 25.3178 17.4536 25.7439C18.7438 26.17 20.1219 26.3303 21.4886 26.2131C22.8552 26.0959 24.1761 25.7043 25.3559 25.0664V25.0664L28.5657 25.8984C28.6979 25.9322 28.8377 25.9334 28.9706 25.9018C29.1035 25.8702 29.2248 25.807 29.3219 25.7187C29.4191 25.6304 29.4886 25.5202 29.5233 25.3994C29.558 25.2785 29.5568 25.1515 29.5196 25.0312L28.6043 22.1133C29.4214 20.8664 29.8704 19.4488 29.9077 17.9979C29.945 16.5469 29.5695 15.1118 28.8174 13.8316C28.0653 12.5514 26.9622 11.4695 25.6149 10.6907C24.2677 9.91198 22.7221 9.46281 21.1278 9.38672" stroke="#2B2B2B" stroke-width="2" stroke-linecap="round" stroke-linejoin="round"/>
</svg>
