<svg width="35" height="10" viewBox="0 0 35 10" fill="none" xmlns="http://www.w3.org/2000/svg">
<path d="M17.5 1.00001C19.7091 1.00001 21.5 2.79087 21.5 5C21.5 7.20914 19.7091 9 17.5 9C15.2909 9 13.5 7.20914 13.5 5C13.5 2.79087 15.2909 1.00001 17.5 1.00001Z" stroke="#584E4E" stroke-width="2" stroke-linecap="round" stroke-linejoin="round"/>
<path d="M29.5 1.00001C31.7091 1.00001 33.5 2.79087 33.5 5C33.5 7.20914 31.7091 9 29.5 9C27.2909 9 25.5 7.20914 25.5 5C25.5 2.79087 27.2909 1.00001 29.5 1.00001Z" stroke="#584E4E" stroke-width="2" stroke-linecap="round" stroke-linejoin="round"/>
<path d="M5.5 1.00001C7.70913 1.00001 9.49999 2.79087 9.49999 5C9.49999 7.20914 7.70913 9 5.5 9C3.29086 9 1.5 7.20914 1.5 5C1.5 2.79087 3.29086 1.00001 5.5 1.00001Z" stroke="#584E4E" stroke-width="2" stroke-linecap="round" stroke-linejoin="round"/>
</svg>
