<svg width="24" height="23" viewBox="0 0 24 23" fill="none" xmlns="http://www.w3.org/2000/svg">
<path d="M21.4403 10.5896L12.2503 19.3967C11.1244 20.4756 9.59747 21.0817 8.00529 21.0817C6.41311 21.0817 4.88613 20.4756 3.76029 19.3967C2.63445 18.3177 2.00195 16.8544 2.00195 15.3285C2.00195 13.8027 2.63445 12.3394 3.76029 11.2604L12.9503 2.45334C13.7009 1.73405 14.7188 1.32996 15.7803 1.32996C16.8417 1.32996 17.8597 1.73405 18.6103 2.45334C19.3609 3.17263 19.7825 4.14819 19.7825 5.16542C19.7825 6.18265 19.3609 7.15822 18.6103 7.8775L9.41029 16.6846C9.03501 17.0442 8.52602 17.2463 7.99529 17.2463C7.46456 17.2463 6.95557 17.0442 6.58029 16.6846C6.20501 16.3249 5.99418 15.8372 5.99418 15.3285C5.99418 14.8199 6.20501 14.3321 6.58029 13.9725L15.0703 5.84584" stroke="black" stroke-width="2" stroke-linecap="round" stroke-linejoin="round"/>
</svg>
