<svg width="22" height="20" viewBox="0 0 22 20" fill="none" xmlns="http://www.w3.org/2000/svg">
<path d="M19.9966 1L17.9898 2.89224M10.3538 10.0922L14.4778 6.20366M14.4778 6.20366L17.488 9.04203L21 5.7306L17.9898 2.89224M14.4778 6.20366L17.9898 2.89224M10.3538 10.0922C10.8719 10.5742 11.2837 11.1481 11.5656 11.7808C11.8475 12.4136 11.9939 13.0926 11.9964 13.7789C11.9988 14.4652 11.8573 15.1451 11.5798 15.7796C11.3024 16.4141 10.8947 16.9906 10.38 17.4759C9.86533 17.9612 9.25394 18.3457 8.58103 18.6072C7.90811 18.8688 7.18698 19.0023 6.45913 19C5.73129 18.9977 5.01111 18.8596 4.34008 18.5938C3.66904 18.328 3.0604 17.9397 2.54919 17.4511C1.5439 16.4697 0.987635 15.1553 1.00021 13.7909C1.01278 12.4265 1.59319 11.1214 2.61642 10.1566C3.63964 9.19175 5.02382 8.64449 6.47083 8.63263C7.91784 8.62078 9.3119 9.14528 10.3528 10.0932L10.3538 10.0922Z" stroke="#584E4E" stroke-width="2" stroke-linecap="round" stroke-linejoin="round"/>
</svg>
