<svg width="33" height="30" viewBox="0 0 33 30" fill="none" xmlns="http://www.w3.org/2000/svg">
<path d="M16.5 26.25C23.3345 26.25 28.875 21.2132 28.875 15C28.875 8.7868 23.3345 3.75 16.5 3.75C9.66548 3.75 4.125 8.7868 4.125 15C4.125 21.2132 9.66548 26.25 16.5 26.25Z" stroke="#2B2B2B" stroke-width="2" stroke-linecap="round" stroke-linejoin="round"/>
<path d="M16.5 18.75C19.3477 18.75 21.6562 16.6513 21.6562 14.0625C21.6562 11.4737 19.3477 9.375 16.5 9.375C13.6523 9.375 11.3438 11.4737 11.3438 14.0625C11.3438 16.6513 13.6523 18.75 16.5 18.75Z" stroke="#2B2B2B" stroke-width="2" stroke-linecap="round" stroke-linejoin="round"/>
<path d="M8.22412 23.3672C9.00002 21.9778 10.184 20.8109 11.6447 19.9958C13.1054 19.1807 14.7859 18.7493 16.4999 18.7493C18.2139 18.7493 19.8944 19.1807 21.3551 19.9958C22.8158 20.8109 23.9998 21.9778 24.7757 23.3672" stroke="#2B2B2B" stroke-width="2" stroke-linecap="round" stroke-linejoin="round"/>
</svg>
