<svg width="34" height="58" viewBox="0 0 34 58" fill="none" xmlns="http://www.w3.org/2000/svg">
<path d="M33.1018 16.5509C33.1018 25.6917 16.5509 46.0546 16.5509 46.0546C16.5509 46.0546 0 25.6917 0 16.5509C0 12.1613 1.74375 7.95153 4.84764 4.84764C7.95153 1.74375 12.1613 0 16.5509 0C20.9404 0 25.1502 1.74375 28.2541 4.84764C31.358 7.95153 33.1018 12.1613 33.1018 16.5509Z" fill="#FFBF00"/>
<path d="M26.3377 15.8313C26.3377 17.7669 25.7637 19.659 24.6884 21.2684C23.613 22.8778 22.0845 24.1322 20.2963 24.8729C18.508 25.6136 16.5402 25.8074 14.6418 25.4298C12.7434 25.0522 10.9996 24.1201 9.63092 22.7514C8.26224 21.3828 7.33015 19.639 6.95253 17.7405C6.57491 15.8421 6.76872 13.8744 7.50944 12.0861C8.25017 10.2978 9.50454 8.76937 11.1139 7.694C12.7233 6.61864 14.6155 6.04466 16.5511 6.04466C17.8357 6.04407 19.1078 6.29651 20.2949 6.78756C21.4819 7.27861 22.5606 7.99866 23.4694 8.9066C24.3782 9.81453 25.0992 10.8926 25.5914 12.0792C26.0835 13.2658 26.3371 14.5377 26.3377 15.8223V15.8313Z" fill="white"/>
<path d="M16.517 19.6945C18.5306 19.6945 20.163 18.0622 20.163 16.0485C20.163 14.0349 18.5306 12.4025 16.517 12.4025C14.5034 12.4025 12.871 14.0349 12.871 16.0485C12.871 18.0622 14.5034 19.6945 16.517 19.6945Z" fill="#FFBF00"/>
<path d="M21.8085 24.3758C20.2368 25.3752 18.4127 25.9059 16.5501 25.9057C14.6876 25.9054 12.8637 25.3742 11.2922 24.3744C11.619 23.2319 12.309 22.227 13.2579 21.5117C14.2067 20.7964 15.3626 20.4095 16.5509 20.4097C17.7391 20.4098 18.895 20.797 19.8436 21.5126C20.7922 22.2282 21.482 23.2333 21.8085 24.3758Z" fill="#FFBF00"/>
<path d="M16.5509 58C19.0149 58 21.0124 56.0025 21.0124 53.5385C21.0124 51.0744 19.0149 49.0769 16.5509 49.0769C14.0868 49.0769 12.0893 51.0744 12.0893 53.5385C12.0893 56.0025 14.0868 58 16.5509 58Z" fill="#FFBF00"/>
</svg>
