<svg width="63" height="59" viewBox="0 0 63 59" fill="none" xmlns="http://www.w3.org/2000/svg">
<g clip-path="url(#clip0_18_342)">
<path d="M63 49.1644C63 49.179 62.9972 49.1935 62.9916 49.207C62.9861 49.2205 62.9779 49.2328 62.9676 49.2431C62.9573 49.2534 62.945 49.2616 62.9315 49.2671C62.9181 49.2727 62.9036 49.2756 62.889 49.2755H0.110957C0.0815293 49.2755 0.0533066 49.2638 0.0324983 49.243C0.0116899 49.2221 0 49.1939 0 49.1644C0 49.135 0.0116899 49.1067 0.0324983 49.0859C0.0533066 49.065 0.0815293 49.0533 0.110957 49.0533H62.889C62.9036 49.0533 62.9181 49.0561 62.9315 49.0617C62.945 49.0673 62.9573 49.0754 62.9676 49.0858C62.9779 49.0961 62.9861 49.1084 62.9916 49.1218C62.9972 49.1353 63 49.1498 63 49.1644Z" fill="#CCCCCC"/>
<path d="M26.014 44.4279C37.0855 44.4279 46.0607 35.441 46.0607 24.355C46.0607 13.2691 37.0855 4.28214 26.014 4.28214C14.9424 4.28214 5.96719 13.2691 5.96719 24.355C5.96719 35.441 14.9424 44.4279 26.014 44.4279Z" fill="#E6E6E6"/>
<path d="M43.2635 24.355C43.2655 27.0501 42.6368 29.7081 41.4277 32.116C40.2186 34.5238 38.4629 36.6145 36.3012 38.2203C36.1567 38.3286 36.0094 38.4341 35.8611 38.5368C32.9705 40.5487 29.5344 41.6271 26.014 41.6271C22.4936 41.6271 19.0574 40.5487 16.1668 38.5368C16.0185 38.4341 15.8712 38.3286 15.7267 38.2203C13.5665 36.6131 11.8119 34.5221 10.603 32.1146C9.39404 29.7071 8.76442 27.0497 8.76442 24.355C8.76442 21.6603 9.39404 19.003 10.603 16.5954C11.8119 14.1879 13.5665 12.097 15.7267 10.4898C15.8712 10.3815 16.0185 10.276 16.1668 10.1733C19.0574 8.16136 22.4936 7.08301 26.014 7.08301C29.5343 7.08301 32.9705 8.16136 35.8611 10.1733C36.0094 10.276 36.1567 10.3815 36.3012 10.4898C38.4629 12.0956 40.2186 14.1862 41.4277 16.5941C42.6368 19.0019 43.2655 21.66 43.2635 24.355Z" fill="white"/>
<path d="M26.014 40.1333C34.7167 40.1333 41.7717 33.0691 41.7717 24.355C41.7717 15.641 34.7167 8.57681 26.014 8.57681C17.3112 8.57681 10.2563 15.641 10.2563 24.355C10.2563 33.0691 17.3112 40.1333 26.014 40.1333Z" fill="#FFBF00"/>
<path opacity="0.2" d="M26.0551 8.62092C25.8162 8.62092 25.5788 8.62717 25.3425 8.6377C29.3252 8.98813 33.0259 10.8413 35.6949 13.8219C38.3639 16.8024 39.8017 20.6874 39.7168 24.6897C39.632 28.692 38.0309 32.5124 35.238 35.3768C32.4451 38.2413 28.6692 39.9356 24.6752 40.1165C25.13 40.156 25.59 40.1774 26.0551 40.1774C30.2343 40.1774 34.2423 38.515 37.1974 35.556C40.1526 32.597 41.8128 28.5838 41.8128 24.3991C41.8128 20.2145 40.1526 16.2012 37.1974 13.2423C34.2423 10.2833 30.2343 8.62092 26.0551 8.62092Z" fill="black"/>
<path d="M26.0606 7.45646C25.9246 7.4567 25.7943 7.51088 25.6982 7.60713C25.6021 7.70337 25.548 7.83384 25.5478 7.96996V10.2106C25.5478 10.3468 25.6018 10.4774 25.698 10.5737C25.7941 10.67 25.9246 10.7241 26.0606 10.7241C26.1966 10.7241 26.327 10.67 26.4232 10.5737C26.5194 10.4774 26.5734 10.3468 26.5734 10.2106V7.96996C26.5732 7.83384 26.5191 7.70337 26.4229 7.60713C26.3268 7.51088 26.1965 7.4567 26.0606 7.45646Z" fill="white"/>
<path d="M36.3012 10.4898C36.1567 10.3815 36.0094 10.276 35.8611 10.1733C35.7722 10.1675 35.6832 10.185 35.6031 10.2242C35.523 10.2633 35.4544 10.3227 35.4042 10.3964L34.1446 12.2478C34.068 12.3604 34.0393 12.4987 34.0646 12.6325C34.09 12.7663 34.1674 12.8845 34.2798 12.9611C34.3922 13.0377 34.5303 13.0665 34.6639 13.0411C34.7975 13.0158 34.9156 12.9383 34.9921 12.8257L36.2518 10.9744C36.2997 10.9041 36.3294 10.823 36.338 10.7384C36.3466 10.6537 36.334 10.5683 36.3012 10.4898Z" fill="white"/>
<path d="M42.0243 18.9316C41.999 18.8692 41.9616 18.8124 41.9144 18.7644C41.8671 18.7165 41.8109 18.6783 41.7489 18.6521C41.6869 18.6259 41.6203 18.6122 41.5531 18.6118C41.4858 18.6114 41.4191 18.6243 41.3567 18.6497L39.2831 19.4927C39.1572 19.5441 39.0568 19.6433 39.004 19.7687C38.9512 19.8941 38.9503 20.0354 39.0014 20.1615C39.0526 20.2876 39.1517 20.3882 39.2768 20.4412C39.402 20.4941 39.5431 20.4952 39.6691 20.4441L41.7428 19.601C41.8686 19.5494 41.9688 19.45 42.0216 19.3246C42.0744 19.1991 42.0754 19.0578 42.0243 18.9316Z" fill="white"/>
<path d="M17.8834 12.2478L16.6237 10.3964C16.5735 10.3227 16.5049 10.2633 16.4248 10.2242C16.3447 10.185 16.2558 10.1675 16.1668 10.1733C16.0186 10.276 15.8712 10.3815 15.7267 10.4898C15.6939 10.5683 15.6813 10.6537 15.6899 10.7384C15.6986 10.823 15.7282 10.9041 15.7761 10.9744L17.0358 12.8257C17.1123 12.9383 17.2304 13.0158 17.364 13.0411C17.4976 13.0665 17.6358 13.0377 17.7482 12.9611C17.8606 12.8845 17.9379 12.7663 17.9633 12.6325C17.9887 12.4987 17.9599 12.3604 17.8834 12.2478Z" fill="white"/>
<path d="M12.7449 19.4927L10.6712 18.6497C10.5452 18.5984 10.4041 18.5994 10.2788 18.6524C10.1535 18.7054 10.0544 18.806 10.0032 18.9321C9.95203 19.0583 9.95298 19.1996 10.0059 19.325C10.0587 19.4505 10.1592 19.5497 10.2852 19.601L12.3588 20.4441C12.4848 20.4952 12.6259 20.4941 12.7511 20.4411C12.8763 20.3882 12.9753 20.2876 13.0265 20.1615C13.0776 20.0354 13.0767 19.8941 13.0239 19.7687C12.9711 19.6433 12.8707 19.5441 12.7449 19.4927Z" fill="white"/>
<path d="M26.0606 37.9859C25.9246 37.9862 25.7943 38.0403 25.6982 38.1366C25.6021 38.2328 25.548 38.3633 25.5478 38.4994V40.7401C25.5478 40.8763 25.6018 41.0069 25.698 41.1032C25.7941 41.1995 25.9246 41.2536 26.0606 41.2536C26.1966 41.2536 26.327 41.1995 26.4232 41.1032C26.5194 41.0069 26.5734 40.8763 26.5734 40.7401V38.4994C26.5732 38.3633 26.5191 38.2328 26.4229 38.1366C26.3268 38.0403 26.1965 37.9862 26.0606 37.9859Z" fill="white"/>
<path d="M36.2518 37.7357L34.9921 35.8843C34.9542 35.8286 34.9057 35.7809 34.8494 35.744C34.7931 35.707 34.7301 35.6815 34.6639 35.6689C34.5978 35.6564 34.5298 35.657 34.4639 35.6707C34.398 35.6844 34.3354 35.711 34.2798 35.749C34.2241 35.7869 34.1765 35.8355 34.1396 35.8918C34.1026 35.9482 34.0772 36.0113 34.0646 36.0776C34.0521 36.1438 34.0527 36.2119 34.0664 36.2779C34.0801 36.3439 34.1067 36.4065 34.1446 36.4623L35.4042 38.3136C35.4544 38.3874 35.523 38.4468 35.6031 38.4859C35.6832 38.525 35.7722 38.5426 35.8611 38.5368C36.0094 38.4341 36.1567 38.3286 36.3012 38.2203C36.334 38.1418 36.3466 38.0563 36.338 37.9717C36.3294 37.8871 36.2997 37.806 36.2518 37.7357Z" fill="white"/>
<path d="M41.7427 29.109L39.6691 28.266C39.5431 28.2148 39.4019 28.2157 39.2767 28.2687C39.1514 28.3217 39.0523 28.4223 39.0011 28.5484C38.9499 28.6746 38.9509 28.8159 39.0037 28.9413C39.0566 29.0668 39.1571 29.1661 39.2831 29.2173L41.3567 30.0604C41.4827 30.1115 41.6238 30.1104 41.749 30.0575C41.8741 30.0045 41.9732 29.9039 42.0244 29.7778C42.0755 29.6517 42.0746 29.5105 42.0218 29.3851C41.969 29.2597 41.8686 29.1604 41.7427 29.109Z" fill="white"/>
<path d="M17.7482 35.749C17.6358 35.6724 17.4976 35.6436 17.364 35.669C17.2304 35.6944 17.1124 35.7718 17.0358 35.8843L15.7761 37.7357C15.7282 37.8059 15.6986 37.8871 15.6899 37.9717C15.6813 38.0563 15.6939 38.1418 15.7267 38.2203C15.8712 38.3286 16.0186 38.4341 16.1668 38.5368C16.2558 38.5426 16.3447 38.525 16.4248 38.4859C16.5049 38.4468 16.5735 38.3874 16.6237 38.3136L17.8834 36.4623C17.9213 36.4065 17.9478 36.3439 17.9616 36.2779C17.9753 36.2119 17.9759 36.1438 17.9633 36.0776C17.9508 36.0113 17.9253 35.9482 17.8884 35.8918C17.8515 35.8355 17.8038 35.7869 17.7482 35.749Z" fill="white"/>
<path d="M13.0265 28.5479C13.0011 28.4855 12.9638 28.4287 12.9165 28.3807C12.8692 28.3328 12.813 28.2946 12.751 28.2684C12.689 28.2423 12.6225 28.2286 12.5552 28.2281C12.4879 28.2277 12.4212 28.2406 12.3589 28.266L10.2852 29.109C10.1593 29.1604 10.0589 29.2597 10.0061 29.3851C9.95333 29.5105 9.9524 29.6517 10.0036 29.7778C10.0547 29.9039 10.1538 30.0045 10.279 30.0575C10.4042 30.1105 10.5452 30.1115 10.6712 30.0604L12.7449 29.2173C12.8707 29.1657 12.971 29.0663 13.0237 28.9409C13.0765 28.8154 13.0775 28.6741 13.0265 28.5479Z" fill="white"/>
<path d="M26.726 24.1002C26.7733 24.3809 26.7076 24.6689 26.5431 24.9011C26.3786 25.1333 26.1289 25.2907 25.8487 25.3387L16.7486 26.8887C16.6097 26.9123 16.4676 26.9084 16.3304 26.877C16.1931 26.8457 16.0633 26.7875 15.9484 26.706C15.8336 26.6244 15.7359 26.521 15.661 26.4016C15.586 26.2822 15.5353 26.1493 15.5117 26.0103C15.4881 25.8713 15.492 25.729 15.5233 25.5915C15.5546 25.454 15.6127 25.3241 15.6941 25.2091C15.7756 25.0941 15.8789 24.9963 15.9981 24.9212C16.1173 24.8462 16.2501 24.7954 16.389 24.7718L25.4891 23.2218C25.7694 23.1744 26.057 23.2403 26.2889 23.4049C26.5208 23.5696 26.678 23.8197 26.726 24.1002Z" fill="#3F3D56"/>
<path d="M36.3036 34.1956C36.1729 34.3272 35.9953 34.4016 35.8099 34.4023C35.6245 34.403 35.4464 34.3301 35.3147 34.1995L25.5185 24.4675C25.387 24.3367 25.3128 24.1589 25.3122 23.9733C25.3115 23.7877 25.3845 23.6095 25.5151 23.4777C25.6456 23.346 25.8231 23.2715 26.0084 23.2707C26.1938 23.2699 26.3719 23.3428 26.5036 23.4734L36.2997 33.2053C36.4312 33.3362 36.5054 33.514 36.5062 33.6997C36.5069 33.8853 36.4341 34.0637 36.3036 34.1956Z" fill="#3F3D56"/>
<path d="M26.014 25.5687C26.6834 25.5687 27.2261 25.0253 27.2261 24.355C27.2261 23.6847 26.6834 23.1413 26.014 23.1413C25.3445 23.1413 24.8018 23.6847 24.8018 24.355C24.8018 25.0253 25.3445 25.5687 26.014 25.5687Z" fill="#CCCCCC"/>
<path d="M17.6648 3.3092C15.8042 6.23821 12.9653 8.18203 9.46431 9.45901C9.39513 9.51089 9.31642 9.54862 9.23268 9.57005C9.14893 9.59147 9.0618 9.59617 8.97624 9.58387C8.89068 9.57158 8.80838 9.54253 8.73404 9.49838C8.65969 9.45424 8.59476 9.39586 8.54295 9.32659C6.64122 6.7841 7.07063 3.15039 9.58051 1.20763C10.1873 0.738756 10.8811 0.395244 11.6216 0.197038C12.362 -0.00116817 13.1344 -0.0501205 13.894 0.0530241C14.6535 0.156169 15.385 0.409355 16.046 0.797884C16.707 1.18641 17.2843 1.70255 17.7445 2.31632L17.7971 2.38664C17.8489 2.45591 17.8866 2.53472 17.908 2.61857C17.9294 2.70243 17.934 2.78968 17.9218 2.87535C17.9095 2.96101 17.8805 3.04342 17.8364 3.11786C17.7923 3.1923 17.734 3.25732 17.6648 3.3092Z" fill="#E6E6E6"/>
<path d="M34.2834 2.31632C34.7436 1.70254 35.3209 1.18641 35.9819 0.797883C36.6429 0.409354 37.3744 0.156169 38.1339 0.0530245C38.8935 -0.0501201 39.6659 -0.00116919 40.4064 0.197037C41.1468 0.395243 41.8406 0.738755 42.4474 1.20763C44.9573 3.15038 45.3867 6.7841 43.485 9.32659C43.4332 9.39586 43.3682 9.45424 43.2939 9.49838C43.2195 9.54253 43.1372 9.57158 43.0517 9.58387C42.9661 9.59617 42.879 9.59147 42.7952 9.57005C42.7115 9.54862 42.6328 9.5109 42.5636 9.45901C39.3135 8.21306 36.6482 6.05694 34.3631 3.3092C34.2234 3.20442 34.131 3.04836 34.1062 2.87534C34.0814 2.70233 34.1262 2.52654 34.2308 2.38664L34.2834 2.31632Z" fill="#E6E6E6"/>
<path d="M33.4679 41.7455C33.3494 41.8121 33.2621 41.9231 33.2252 42.0541C33.1883 42.1851 33.2047 42.3254 33.2709 42.4443L36.2305 47.7401C36.2969 47.8589 36.4078 47.9464 36.5386 47.9834C36.6695 48.0204 36.8097 48.0038 36.9284 47.9373C37.0471 47.8708 37.1345 47.7598 37.1715 47.6288C37.2084 47.4978 37.1919 47.3574 37.1255 47.2386L34.1659 41.9428C34.0993 41.8241 33.9885 41.7367 33.8576 41.6997C33.7268 41.6628 33.5867 41.6792 33.4679 41.7455Z" fill="#E6E6E6"/>
<path d="M17.862 41.9428L14.9024 47.2386C14.836 47.3574 14.8195 47.4978 14.8565 47.6288C14.8934 47.7598 14.9809 47.8708 15.0996 47.9373C15.2182 48.0038 15.3584 48.0204 15.4893 47.9834C15.6202 47.9464 15.731 47.8589 15.7974 47.7401L18.7571 42.4443C18.79 42.3855 18.811 42.3207 18.8189 42.2537C18.8268 42.1868 18.8215 42.1189 18.8032 42.054C18.7849 41.9891 18.754 41.9284 18.7123 41.8754C18.6706 41.8225 18.6188 41.7783 18.5601 41.7454C18.5013 41.7124 18.4366 41.6914 18.3697 41.6835C18.3028 41.6756 18.235 41.681 18.1702 41.6993C18.1054 41.7176 18.0448 41.7486 17.9919 41.7904C17.9391 41.8321 17.8949 41.8839 17.862 41.9428Z" fill="#E6E6E6"/>
<path d="M36.8299 49.096C37.7053 49.096 38.415 48.3854 38.415 47.5089C38.415 46.6323 37.7053 45.9217 36.8299 45.9217C35.9545 45.9217 35.2448 46.6323 35.2448 47.5089C35.2448 48.3854 35.9545 49.096 36.8299 49.096Z" fill="#E6E6E6"/>
<path d="M37.9488 8.48345C38.8242 8.48345 39.5339 7.77285 39.5339 6.89629C39.5339 6.01972 38.8242 5.30913 37.9488 5.30913C37.0734 5.30913 36.3637 6.01972 36.3637 6.89629C36.3637 7.77285 37.0734 8.48345 37.9488 8.48345Z" fill="#E6E6E6"/>
<path d="M25.9207 4.74896C26.7961 4.74896 27.5058 4.03836 27.5058 3.1618C27.5058 2.28524 26.7961 1.57464 25.9207 1.57464C25.0453 1.57464 24.3356 2.28524 24.3356 3.1618C24.3356 4.03836 25.0453 4.74896 25.9207 4.74896Z" fill="#E6E6E6"/>
<path d="M14.4521 8.29672C15.3275 8.29672 16.0372 7.58613 16.0372 6.70956C16.0372 5.833 15.3275 5.12241 14.4521 5.12241C13.5767 5.12241 12.867 5.833 12.867 6.70956C12.867 7.58613 13.5767 8.29672 14.4521 8.29672Z" fill="#E6E6E6"/>
<path d="M15.4778 49.096C16.3532 49.096 17.0629 48.3854 17.0629 47.5089C17.0629 46.6323 16.3532 45.9217 15.4778 45.9217C14.6023 45.9217 13.8927 46.6323 13.8927 47.5089C13.8927 48.3854 14.6023 49.096 15.4778 49.096Z" fill="#E6E6E6"/>
<path d="M42.7698 55.3956L42.838 55.5682H42.7698V55.3956Z" fill="#2F2E41"/>
</g>
<defs>
<clipPath id="clip0_18_342">
<rect width="63" height="59" fill="white"/>
</clipPath>
</defs>
</svg>
