<svg width="69" height="59" viewBox="0 0 69 59" fill="none" xmlns="http://www.w3.org/2000/svg">
<path d="M21.4906 51.5608H47.5094L60.5187 29.5L47.5094 7.4392H21.4906L8.48123 29.5L21.4906 51.5608Z" fill="#F2F2F2"/>
<path d="M50.8073 59H18.1926C17.8616 58.9995 17.5366 58.9139 17.25 58.7519C16.9633 58.5899 16.7251 58.3571 16.5592 58.0767L0.25182 30.4231C0.0868282 30.1422 0 29.8238 0 29.4998C0 29.1758 0.0868282 28.8574 0.25182 28.5766L16.5592 0.923267C16.7252 0.642906 16.9633 0.410088 17.25 0.248072C17.5366 0.0860557 17.8616 0.000515118 18.1926 0H50.8074C51.1384 0.000509074 51.4634 0.0860438 51.75 0.24806C52.0366 0.410077 52.2748 0.642902 52.4407 0.923267L68.7481 28.5766C68.9131 28.8574 69 29.1758 69 29.4998C69 29.8239 68.9131 30.1422 68.7481 30.4231L52.4407 58.0767C52.2748 58.3571 52.0366 58.5899 51.75 58.7519C51.4633 58.914 51.1383 58.9995 50.8073 59ZM18.1926 0.73863C17.994 0.738937 17.799 0.790257 17.627 0.887467C17.455 0.984676 17.3121 1.12437 17.2125 1.29259L0.905175 28.9459C0.806179 29.1144 0.754078 29.3054 0.754086 29.4998C0.754094 29.6943 0.806205 29.8853 0.905215 30.0538L17.2125 57.7074C17.3121 57.8756 17.455 58.0153 17.627 58.1125C17.799 58.2098 17.994 58.2611 18.1926 58.2614H50.8073C51.0059 58.2611 51.2009 58.2098 51.3729 58.1126C51.5449 58.0154 51.6878 57.8756 51.7873 57.7074L68.0948 30.0538C68.1938 29.8853 68.2459 29.6942 68.2459 29.4998C68.2459 29.3054 68.1938 29.1144 68.0948 28.9459L51.7873 1.29257C51.6878 1.12435 51.5449 0.98466 51.3729 0.88745C51.201 0.790239 51.0059 0.738915 50.8074 0.738613L18.1926 0.73863Z" fill="#CCCCCC"/>
<path d="M34.476 21.0164C33.8606 20.384 33.124 19.8766 32.3083 19.5231C31.4925 19.1696 30.6136 18.9768 29.7218 18.9559C28.8299 18.935 27.9426 19.0863 27.1105 19.4012C26.2784 19.7161 25.5179 20.1885 24.8722 20.7912C24.2266 21.3939 23.7086 22.1153 23.3478 22.9141C22.987 23.7129 22.7905 24.5735 22.7695 25.4466C22.7485 26.3198 22.9034 27.1884 23.2253 28.003C23.5473 28.8175 24.03 29.562 24.6459 30.1939C24.7201 30.2701 24.7961 30.3445 24.874 30.4172L34.707 40.0442L44.309 30.6433C45.5622 29.3567 46.2517 27.6411 46.2301 25.8633C46.2086 24.0856 45.4776 22.3866 44.1936 21.1294C42.9095 19.8722 41.1741 19.1566 39.3583 19.1355C37.5425 19.1144 35.7903 19.7894 34.476 21.0164Z" fill="#FFBF00"/>
</svg>
