<svg width="69" height="59" viewBox="0 0 69 59" fill="none" xmlns="http://www.w3.org/2000/svg">
<path d="M21.4906 51.1767H47.5093L60.5187 29.1159L47.5093 7.0551H21.4906L8.4812 29.1159L21.4906 51.1767Z" fill="#F2F2F2"/>
<path d="M50.8073 59H18.1926C17.8616 58.9995 17.5366 58.9139 17.25 58.7519C16.9633 58.5899 16.7251 58.3571 16.5592 58.0767L0.25182 30.4231C0.0868282 30.1422 0 29.8238 0 29.4998C0 29.1758 0.0868282 28.8574 0.25182 28.5765L16.5592 0.923267C16.7252 0.642906 16.9633 0.410087 17.25 0.248072C17.5366 0.0860557 17.8616 0.000515118 18.1926 0H50.8074C51.1384 0.000509074 51.4634 0.086055 51.75 0.248072C52.0366 0.410088 52.2748 0.642902 52.4407 0.923267L68.7481 28.5765C68.9131 28.8574 69 29.1758 69 29.4998C69 29.8238 68.9131 30.1422 68.7481 30.4231L52.4407 58.0767C52.2748 58.3571 52.0366 58.5899 51.75 58.7519C51.4633 58.914 51.1383 58.9995 50.8073 59ZM18.1926 0.738613C17.994 0.73892 17.799 0.790251 17.627 0.887461C17.455 0.98467 17.3121 1.12435 17.2125 1.29257L0.905175 28.9459C0.806179 29.1144 0.754078 29.3054 0.754086 29.4998C0.754094 29.6942 0.806205 29.8852 0.905215 30.0538L17.2125 57.7074C17.3121 57.8756 17.455 58.0153 17.627 58.1125C17.799 58.2097 17.994 58.2611 18.1926 58.2614H50.8073C51.0059 58.2611 51.2009 58.2098 51.3729 58.1125C51.5449 58.0153 51.6878 57.8756 51.7873 57.7074L68.0948 30.0538C68.1938 29.8852 68.2459 29.6942 68.2459 29.4998C68.2459 29.3054 68.1938 29.1144 68.0948 28.9459L51.7873 1.29257C51.6878 1.12435 51.5449 0.98466 51.3729 0.88745C51.201 0.790239 51.0059 0.738915 50.8074 0.738613H18.1926Z" fill="#CCCCCC"/>
<path d="M34.4999 16.9374C32.0397 16.9374 29.6347 17.6516 27.5891 18.9898C25.5435 20.328 23.9492 22.2301 23.0077 24.4554C22.0662 26.6807 21.8198 29.1294 22.2998 31.4918C22.7798 33.8542 23.9645 36.0242 25.7041 37.7274C27.4438 39.4306 29.6602 40.5905 32.0732 41.0604C34.4861 41.5303 36.9872 41.2892 39.2602 40.3674C41.5331 39.4456 43.4759 37.8847 44.8427 35.8819C46.2095 33.8792 46.9391 31.5246 46.9391 29.1159C46.9391 27.5166 46.6173 25.933 45.9922 24.4554C45.3671 22.9778 44.4508 21.6353 43.2957 20.5044C42.1407 19.3735 40.7694 18.4765 39.2602 17.8644C37.751 17.2524 36.1335 16.9374 34.4999 16.9374ZM34.4999 20.5909C35.238 20.5909 35.9595 20.8052 36.5732 21.2067C37.1869 21.6081 37.6652 22.1787 37.9476 22.8463C38.23 23.5139 38.3039 24.2485 38.16 24.9573C38.016 25.666 37.6606 26.317 37.1387 26.8279C36.6168 27.3389 35.9518 27.6869 35.228 27.8278C34.5041 27.9688 33.7537 27.8965 33.0719 27.6199C32.39 27.3434 31.8072 26.8751 31.3971 26.2743C30.9871 25.6735 30.7682 24.9671 30.7682 24.2445C30.7682 23.2755 31.1614 22.3462 31.8612 21.6611C32.561 20.9759 33.5102 20.5909 34.4999 20.5909ZM34.4999 38.1795C33.0257 38.173 31.5755 37.8144 30.2749 37.1348C28.9743 36.4553 27.8627 35.4754 27.0365 34.2801C27.0963 31.8444 32.0121 30.5036 34.4999 30.5036C36.9877 30.5036 41.9036 31.8444 41.9634 34.2801C41.1362 35.4745 40.0244 36.4537 38.724 37.1331C37.4237 37.8125 35.9739 38.1717 34.4999 38.1795Z" fill="#FFBF00"/>
</svg>
